<?xml version="1.0" encoding="utf-8"?>
<!-- Generator: Adobe Illustrator 24.2.3, SVG Export Plug-In . SVG Version: 6.00 Build 0)  -->
<svg version="1.1" id="Layer_1" xmlns="http://www.w3.org/2000/svg" xmlns:xlink="http://www.w3.org/1999/xlink" x="0px" y="0px"
	 viewBox="0 0 260.8 50.7" style="enable-background:new 0 0 260.8 50.7;" xml:space="preserve">
<style type="text/css">
	.st0{fill:#002F68;}
	.st1{fill:#F1A300;}
</style>
<g>
	<g id="Logo_2_" transform="translate(-131.994 -434.16)">
		<g id="Grupo_5_2_" transform="translate(131.994 434.16)">
			<g id="Grupo_2_2_" transform="translate(48.191 0.226)">
				<g id="Grupo_1_2_">
					<path id="Caminho_1_2_" class="st0" d="M23.7,12.9c2,2.8,3.1,7.1,3,12.9H10c0.8,2.5,3.1,3.7,6.7,3.7c2-0.1,4.1-0.6,5.9-1.4
						l1.3-0.4v7.9c-3.1,1.2-6.5,1.8-9.8,1.7c-2.6,0-5.1-0.5-7.4-1.7c-2.1-1.1-3.8-2.7-5-4.8c-1.2-2.2-1.8-4.7-1.8-7.2
						c0-4.7,1.2-8.4,3.6-11.1s5.9-3.9,10.4-3.9C18.4,8.7,21.7,10.1,23.7,12.9z M11.1,16.8c-0.8,0.9-1.3,2.1-1.4,3.3h7.6
						c-0.1-1.2-0.5-2.4-1.2-3.4c-0.7-0.7-1.6-1.1-2.5-1C12.6,15.7,11.8,16.1,11.1,16.8L11.1,16.8z"/>
					<path id="Caminho_2_2_" class="st0" d="M35.3,36.8c-1.2-0.3-2.7-0.8-4.3-1.4v-8.1c1.2,1,2.6,1.7,4,2.3c1.6,0.7,3.4,1,5.2,1
						c0.6,0.1,1.3-0.1,1.9-0.4c0.3-0.3,0.5-0.6,0.4-1c0-0.6-0.5-1-1.5-1.4c-1.3-0.4-2.7-0.8-4-1c-1.7-0.3-3.3-1.1-4.4-2.5
						c-1.3-1.6-1.9-3.7-1.8-5.7c-0.1-2,0.5-4,1.8-5.6c1.1-1.4,2.7-2.5,4.4-3.1c1.7-0.6,3.6-0.9,5.4-0.9c1.8,0,3.7,0.3,5.5,0.7
						c1.3,0.4,2.5,0.9,3.7,1.7l0,7.1c-0.2-0.1-0.9-0.5-1.9-1c-0.9-0.5-1.9-1-3-1.3c-0.9-0.3-1.9-0.5-2.9-0.5
						c-0.8-0.1-1.7,0.1-2.4,0.5c-0.7,0.6-0.8,1.7-0.2,2.4c0.1,0.1,0.3,0.3,0.4,0.4c0.9,0.4,1.8,0.7,2.8,1c1.4,0.3,2.8,0.7,4.1,1.2
						c1.1,0.5,2.1,1.3,2.8,2.3c0.9,1.4,1.3,3.1,1.2,4.8c-0.1,3.2-1.3,5.4-3.7,6.8c-2.8,1.5-6,2.2-9.2,2.1
						C38.1,37.3,36.7,37.2,35.3,36.8z"/>
					<path id="Caminho_3_2_" class="st0" d="M79.6,12.9c2,2.8,3.1,7.1,3,12.9H65.9c0.8,2.5,3.1,3.7,6.7,3.7c2-0.1,4.1-0.6,5.9-1.4
						l1.3-0.4v7.9c-3.1,1.2-6.5,1.8-9.8,1.7c-2.6,0-5.1-0.5-7.4-1.7c-2.1-1.1-3.8-2.7-5-4.8c-1.2-2.2-1.8-4.7-1.8-7.2
						c0-4.7,1.2-8.4,3.6-11.1c2.4-2.6,5.9-3.9,10.4-3.9C74.3,8.7,77.5,10.1,79.6,12.9z M67,16.8c-0.8,0.9-1.3,2.1-1.4,3.3h7.6
						c-0.1-1.2-0.5-2.4-1.2-3.4c-0.7-0.7-1.6-1.1-2.5-1C68.5,15.7,67.6,16.1,67,16.8L67,16.8z"/>
					<path id="Caminho_4_2_" class="st0" d="M87.3,12.8c0.8-0.7,1.8-1.3,2.8-1.7c1.4-0.7,2.9-1.2,4.4-1.6c1.5-0.4,3-0.6,4.6-0.7
						c3.9,0,6.6,0.6,7.9,1.7v6.8c-1.1-0.3-2.3-0.5-3.5-0.5c-1.6-0.1-3.1-0.2-4.5-0.2c-0.7,0-1.4,0-2.2,0.1v20.7h-9.6V12.8z"/>
					<path id="Caminho_5_2_" class="st0" d="M140.7,9.7l-11.1,27.7H120L108.9,9.7h10.4l6.1,16.1l5.1-16.1H140.7z"/>
					<path id="Caminho_6_2_" class="st0" d="M164.1,10.7c2.6,1.3,3.9,3.9,3.9,7.8l0,12.5c-0.1,4.2-4.5,6.3-13.3,6.3
						c-4,0-7-0.7-9.2-2.2c-2.1-1.5-3.2-3.9-3.2-7.4c-0.1-2.1,0.8-4.2,2.3-5.7c1.5-1.5,3.9-2.2,7.1-2.2c1.2,0,2.4,0.2,3.6,0.5
						c1.1,0.3,2.2,0.7,3.3,1.3v-1c0-2.7-1.8-4-5.5-4c-1.6,0-3.2,0.3-4.7,0.9c-1.4,0.5-2.6,1.2-3.8,2v-8.3c1.4-0.8,2.9-1.3,4.4-1.6
						c2.2-0.5,4.5-0.8,6.7-0.7C158.6,8.8,161.5,9.5,164.1,10.7z M157.8,30.5c0.5-0.1,0.8-0.6,0.8-1.1v-3.3c-0.9-0.3-1.8-0.4-2.7-0.4
						c-1.1-0.1-2.2,0.1-3.2,0.5c-0.6,0.4-1,1.1-0.9,1.9c0,0.7,0.3,1.4,0.9,1.8c0.5,0.5,1.3,0.8,2,0.8
						C155.7,30.9,156.8,30.8,157.8,30.5L157.8,30.5z"/>
					<path id="Caminho_7_2_" class="st1" d="M171.7,42.9c1.9,0,3.2-0.3,3.9-1.1c0.8-1,1.2-2.3,1.1-3.6V10.3h5.7l0,28
						c0,6.3-3.6,9.4-10.7,9.4L171.7,42.9L171.7,42.9z M176.5,0h6v5.1h-6V0z"/>
					<path id="Caminho_8_2_" class="st1" d="M209.6,11.4c2.1,1.4,3.1,3.7,3,6.8v12.8c0.1,2.2-1.2,4.2-3.2,5.1
						c-2.9,1.1-6,1.6-9.1,1.4c-2.7,0.1-5.5-0.6-7.9-2c-2.1-1.3-3.1-3.5-3.1-6.6c0-2.9,0.8-5.1,2.5-6.6c1.7-1.5,4.1-2.2,7.2-2.2
						c2.8-0.1,5.6,0.6,8,1.9v-2.6c0-3.6-2.2-5.5-6.6-5.5c-1.6,0-3.2,0.2-4.7,0.7c-1.4,0.4-2.7,1.1-3.9,2v-5.2
						c1.4-0.8,2.8-1.3,4.4-1.6c1.9-0.4,3.9-0.6,5.9-0.6C204.7,9.2,207.3,10,209.6,11.4z M205.6,32.7c0.9-0.2,1.4-1,1.4-1.9v-5.2
						c-1.9-0.8-3.9-1.2-6-1.2c-1.6-0.1-3.2,0.3-4.6,1.1c-1.1,0.7-1.7,1.9-1.6,3.2c-0.1,1.4,0.6,2.7,1.8,3.4c1.3,0.8,2.7,1.2,4.3,1.1
						C202.5,33.2,204.1,33.1,205.6,32.7L205.6,32.7z M202.8,0h5.6l-5.1,6.3h-3.3L202.8,0z"/>
				</g>
			</g>
			<g id="Grupo_4_2_" transform="translate(0)">
				<g id="Grupo_3_2_">
					<path id="Caminho_9_2_" class="st0" d="M4.5,23c-1.2,0-2.4,0-3.6,0c-0.7,0-1.2-0.6-0.9-1.2c0.2-0.3,0.5-0.5,0.8-0.5
						c2.4,0,4.8,0,7.2,0c0.5,0,0.9,0.3,0.9,0.8c0,0,0,0,0,0c0,0.5-0.4,0.9-0.9,0.9c0,0,0,0-0.1,0C6.9,23,5.7,23,4.5,23z"/>
					<path id="Caminho_10_2_" class="st0" d="M44.9,4.4c-2.1-2.5-5.8-4-11.4-4H16.1l-0.4,3.2h-1c-0.7,0-1,0.3-1,0.8
						c0,0.6,0.3,0.9,1,0.9h0.8l-4,28.8c-1.5,0-3,0-4.5,0c-0.6,0-1,0.3-1,0.9s0.4,0.9,1,0.9c1,0,1.9,0,2.9,0c0.5,0,0.9,0,1.4,0
						l-0.2,1.7H21L22.6,26h4.5l6.1,11.5h11.8l-7.2-13.2c4.8-1.9,8.4-5.7,9.1-11.3l0-0.1C47.4,9.3,46.7,6.5,44.9,4.4z M37.5,13.2
						c-0.3,0-0.6,0-0.9,0h-1.1c-1,0-2,0-3,0c-0.6,0-1,0.3-1,0.9c0,0.5,0.4,0.9,1,0.9c1,0,1.9,0,2.9,0h0.8c-0.8,1.9-2.8,3.1-5.7,3.1
						h-6.7L25,9.2h6.7c2.5,0,4.1,0.8,4.7,2.3h1.1c0.5-0.1,0.9,0.3,1,0.8c0.1,0.5-0.3,0.9-0.8,1C37.7,13.2,37.6,13.2,37.5,13.2
						L37.5,13.2z"/>
				</g>
			</g>
		</g>
	</g>
	<g>
		<path class="st0" d="M54,44.2V48h-1.4v-0.8c-0.4,0.6-1.1,0.9-2,0.9c-1.5,0-2.4-0.8-2.4-1.9c0-1.1,0.7-1.9,2.7-1.9h1.7v-0.1
			c0-0.9-0.5-1.4-1.6-1.4c-0.7,0-1.5,0.2-1.9,0.6l-0.6-1.1c0.7-0.5,1.7-0.8,2.7-0.8C53,41.5,54,42.4,54,44.2z M52.5,46v-0.7H51
			c-1,0-1.3,0.4-1.3,0.9c0,0.5,0.5,0.9,1.2,0.9C51.6,47,52.3,46.6,52.5,46z"/>
		<path class="st0" d="M64.7,41.6V47c0,2.3-1.2,3.4-3.5,3.4c-1.2,0-2.4-0.3-3.1-0.9l0.7-1.1c0.6,0.5,1.5,0.8,2.4,0.8
			c1.4,0,2-0.6,2-2v-0.3c-0.5,0.6-1.3,0.9-2.2,0.9c-1.8,0-3.2-1.3-3.2-3.1c0-1.9,1.4-3.1,3.2-3.1c0.9,0,1.7,0.3,2.2,0.9v-0.9H64.7z
			 M63.2,44.6c0-1.1-0.8-1.8-1.9-1.8c-1.1,0-2,0.7-2,1.8c0,1.1,0.8,1.8,2,1.8C62.4,46.4,63.2,45.7,63.2,44.6z"/>
		<path class="st0" d="M75,45.3h-5c0.2,0.9,1,1.5,2.1,1.5c0.7,0,1.3-0.2,1.7-0.7l0.8,0.9c-0.6,0.7-1.5,1-2.6,1
			c-2.2,0-3.6-1.4-3.6-3.3c0-1.9,1.4-3.3,3.3-3.3c1.9,0,3.2,1.3,3.2,3.3C75,44.9,75,45.1,75,45.3z M69.9,44.3h3.6
			c-0.1-0.9-0.8-1.6-1.8-1.6C70.8,42.7,70,43.3,69.9,44.3z"/>
		<path class="st0" d="M85,44.3V48h-1.5v-3.5c0-1.1-0.6-1.7-1.5-1.7c-1.1,0-1.8,0.6-1.8,1.9V48h-1.5v-6.4h1.4v0.8
			c0.5-0.6,1.3-0.9,2.2-0.9C83.9,41.5,85,42.4,85,44.3z"/>
		<path class="st0" d="M95.6,39.1V48h-1.4v-0.8c-0.5,0.6-1.3,0.9-2.1,0.9c-1.9,0-3.2-1.3-3.2-3.3c0-2,1.4-3.3,3.2-3.3
			c0.8,0,1.6,0.3,2.1,0.9v-3.3H95.6z M94.1,44.8c0-1.2-0.8-2-1.9-2c-1.1,0-1.9,0.8-1.9,2c0,1.2,0.8,2,1.9,2
			C93.3,46.8,94.1,46,94.1,44.8z"/>
		<path class="st0" d="M105.2,44.2V48h-1.4v-0.8c-0.4,0.6-1.1,0.9-2,0.9c-1.5,0-2.4-0.8-2.4-1.9c0-1.1,0.7-1.9,2.7-1.9h1.7v-0.1
			c0-0.9-0.5-1.4-1.6-1.4c-0.7,0-1.5,0.2-1.9,0.6l-0.6-1.1c0.7-0.5,1.7-0.8,2.7-0.8C104.1,41.5,105.2,42.4,105.2,44.2z M103.7,46
			v-0.7h-1.6c-1,0-1.3,0.4-1.3,0.9c0,0.5,0.5,0.9,1.2,0.9C102.8,47,103.5,46.6,103.7,46z"/>
		<path class="st0" d="M120.2,44.3V48h-1.5v-3.5c0-1.1-0.5-1.7-1.4-1.7c-1,0-1.7,0.6-1.7,1.9V48H114v-3.5c0-1.1-0.5-1.7-1.4-1.7
			c-1,0-1.7,0.6-1.7,1.9V48h-1.5v-6.4h1.4v0.8c0.5-0.6,1.2-0.9,2.1-0.9c0.9,0,1.7,0.3,2.2,1.1c0.5-0.7,1.4-1.1,2.4-1.1
			C119.1,41.5,120.2,42.4,120.2,44.3z"/>
		<path class="st0" d="M130.5,45.3h-5c0.2,0.9,1,1.5,2.1,1.5c0.7,0,1.3-0.2,1.7-0.7L130,47c-0.6,0.7-1.5,1-2.6,1
			c-2.2,0-3.6-1.4-3.6-3.3c0-1.9,1.4-3.3,3.3-3.3c1.9,0,3.2,1.3,3.2,3.3C130.5,44.9,130.5,45.1,130.5,45.3z M125.4,44.3h3.6
			c-0.1-0.9-0.8-1.6-1.8-1.6C126.3,42.7,125.5,43.3,125.4,44.3z"/>
		<path class="st0" d="M140.5,44.3V48H139v-3.5c0-1.1-0.6-1.7-1.5-1.7c-1.1,0-1.8,0.6-1.8,1.9V48h-1.5v-6.4h1.4v0.8
			c0.5-0.6,1.3-0.9,2.2-0.9C139.4,41.5,140.5,42.4,140.5,44.3z"/>
		<path class="st0" d="M148.6,47.6c-0.4,0.3-0.9,0.4-1.4,0.4c-1.4,0-2.2-0.7-2.2-2.2v-3.1h-1.1v-1.2h1.1v-1.5h1.5v1.5h1.7v1.2h-1.7
			v3.1c0,0.6,0.3,1,0.9,1c0.3,0,0.6-0.1,0.8-0.3L148.6,47.6z"/>
		<path class="st0" d="M151.4,44.8c0-1.9,1.4-3.3,3.4-3.3c2,0,3.4,1.4,3.4,3.3c0,1.9-1.4,3.3-3.4,3.3
			C152.8,48.1,151.4,46.7,151.4,44.8z M156.7,44.8c0-1.2-0.8-2-1.9-2c-1.1,0-1.9,0.8-1.9,2c0,1.2,0.8,2,1.9,2
			C155.9,46.8,156.7,46,156.7,44.8z"/>
		<path class="st0" d="M167,44.8c0-1.9,1.4-3.3,3.4-3.3c2,0,3.4,1.4,3.4,3.3c0,1.9-1.4,3.3-3.4,3.3C168.4,48.1,167,46.7,167,44.8z
			 M172.3,44.8c0-1.2-0.8-2-1.9-2c-1.1,0-1.9,0.8-1.9,2c0,1.2,0.8,2,1.9,2C171.5,46.8,172.3,46,172.3,44.8z"/>
		<path class="st0" d="M183.9,44.3V48h-1.5v-3.5c0-1.1-0.6-1.7-1.5-1.7c-1.1,0-1.8,0.6-1.8,1.9V48h-1.5v-6.4h1.4v0.8
			c0.5-0.6,1.3-0.9,2.2-0.9C182.8,41.5,183.9,42.4,183.9,44.3z"/>
		<path class="st0" d="M188.1,39.1h1.5V48h-1.5V39.1z"/>
		<path class="st0" d="M193.6,39.6c0-0.5,0.4-0.9,1-0.9s1,0.4,1,0.9c0,0.5-0.4,0.9-1,0.9C194.1,40.5,193.6,40.1,193.6,39.6z
			 M193.9,41.6h1.5V48h-1.5V41.6z"/>
		<path class="st0" d="M205.9,44.3V48h-1.5v-3.5c0-1.1-0.6-1.7-1.5-1.7c-1.1,0-1.8,0.6-1.8,1.9V48h-1.5v-6.4h1.4v0.8
			c0.5-0.6,1.3-0.9,2.2-0.9C204.8,41.5,205.9,42.4,205.9,44.3z"/>
		<path class="st0" d="M216.2,45.3h-5c0.2,0.9,1,1.5,2.1,1.5c0.7,0,1.3-0.2,1.7-0.7l0.8,0.9c-0.6,0.7-1.5,1-2.6,1
			c-2.2,0-3.6-1.4-3.6-3.3c0-1.9,1.4-3.3,3.3-3.3c1.9,0,3.2,1.3,3.2,3.3C216.2,44.9,216.2,45.1,216.2,45.3z M211.2,44.3h3.6
			c-0.1-0.9-0.8-1.6-1.8-1.6C212,42.7,211.3,43.3,211.2,44.3z"/>
	</g>
</g>
</svg>
